<svg xmlns="http://www.w3.org/2000/svg" xmlns:xlink="http://www.w3.org/1999/xlink" width="2048" zoomAndPan="magnify" viewBox="0 0 1536 213" height="284" preserveAspectRatio="xMidYMid meet" version="1.0"><path fill="#59349c" d="M 21.355469 120.464844 C 26.933594 118.230469 36.136719 116.554688 48.96875 115.441406 C 48.96875 115.441406 56.6875 111.28125 71.984375 109.167969 C 72.417969 109.105469 75.121094 105.820312 87.046875 103.726562 C 93.738281 103.726562 95.832031 102.105469 99.597656 105.820312 C 101.074219 100.160156 107.601562 98.882812 111.730469 99.542969 C 114.617188 100.003906 116.460938 102.023438 116.753906 102.890625 C 118.425781 107.910156 125.539062 104.984375 129.304688 107.910156 C 119.679688 110.421875 119.679688 110.839844 115.914062 112.515625 C 109.222656 118.371094 102.945312 125.484375 96.25 125.484375 C 89.554688 127.160156 82.515625 127.714844 75.121094 127.160156 C 74.703125 128.832031 73.65625 129.945312 71.984375 130.503906 C 69.472656 131.34375 71.5625 126.738281 70.308594 125.484375 C 69.054688 124.230469 69.054688 129.667969 63.195312 133.015625 C 62.777344 127.160156 61.105469 128.832031 61.105469 125.484375 C 61.105469 122.136719 62.777344 130.925781 53.992188 133.015625 C 48.132812 134.410156 40.742188 134.691406 31.816406 133.851562 C 42.695312 130.226562 49.109375 127.015625 51.0625 124.230469 C 48.96875 124.230469 43.53125 123.8125 42.277344 120.464844 C 36.417969 118.582031 29.445312 118.582031 21.355469 120.464844 Z M 21.355469 120.464844 " fill-opacity="1" fill-rule="evenodd"/><path fill="#59349c" d="M 267.378906 114.027344 C 267.378906 114.894531 263.195312 115.285156 260.683594 116.121094 C 256.917969 116.539062 257.335938 119.46875 254.824219 119.050781 C 252.316406 118.632812 252.734375 122.398438 246.875 124.90625 C 247.714844 129.511719 255.664062 128.671875 261.9375 132.855469 C 274.074219 145.667969 269.46875 140.808594 277.417969 159.214844 C 283.277344 170.933594 284.949219 171.769531 288.714844 183.066406 C 288.296875 183.484375 284.113281 182.648438 282.859375 180.136719 C 282.441406 182.230469 280.765625 180.554688 281.183594 183.066406 C 279.09375 182.648438 277.839844 179.71875 276.164062 178.464844 C 274.492188 178.046875 276.582031 181.390625 275.328125 181.8125 C 273.652344 181.8125 273.234375 178.464844 271.5625 178.464844 C 269.886719 178.882812 271.980469 180.972656 270.726562 181.390625 C 256.917969 168.839844 252.734375 172.605469 252.734375 166.328125 C 249.386719 170.511719 248.550781 165.492188 244.785156 167.585938 C 243.109375 165.492188 242.273438 163.402344 243.949219 160.472656 C 243.527344 158.378906 241.019531 162.5625 239.34375 161.726562 C 238.789062 159.214844 239.761719 156.425781 242.273438 153.359375 C 239.484375 156.148438 236.417969 157.542969 233.070312 157.542969 C 233.488281 153.359375 232.648438 154.824219 235.160156 150.847656 C 232.648438 153.988281 229.722656 154.195312 227.210938 153.359375 C 225.359375 152.480469 228.882812 150.011719 228.046875 148.546875 C 224.699219 148.546875 218.523438 148.421875 218.007812 147.082031 C 216.640625 143.570312 221.351562 139.132812 219.679688 136.621094 C 218.375 134.667969 214.660156 140.386719 213.402344 135.367188 C 213.402344 130.347656 211.449219 128.253906 207.546875 129.089844 C 203.917969 128.535156 199.457031 128.535156 194.15625 129.089844 C 186.207031 129.929688 182.859375 127 169.890625 127 C 174.074219 124.90625 173.65625 121.558594 181.1875 121.558594 C 172.398438 120.304688 177.003906 117.375 162.359375 116.121094 C 174.910156 112.773438 175.746094 116.121094 184.953125 119.050781 C 213.402344 116.121094 194.15625 112.773438 224.28125 109.84375 C 230.140625 109.007812 239.34375 108.171875 248.550781 110.683594 C 250.640625 109.84375 251.058594 108.589844 254.824219 108.171875 C 258.171875 108.171875 260.128906 109.707031 260.683594 112.773438 C 265.148438 113.074219 267.378906 113.492188 267.378906 114.027344 Z M 267.378906 114.027344 " fill-opacity="1" fill-rule="evenodd"/><path fill="#59349c" d="M 305.035156 124.921875 C 318.421875 119.0625 328.464844 114.042969 342.691406 108.183594 C 351.058594 105.671875 358.171875 106.089844 366.121094 104.835938 C 377.835938 104.835938 373.234375 101.488281 389.132812 103.582031 C 392.480469 103.164062 393.714844 100.441406 397.082031 100.652344 C 400.710938 100.652344 402.660156 101.765625 402.941406 104 L 413.820312 106.089844 L 403.777344 108.183594 C 402.660156 110.414062 400.429688 111.667969 397.082031 111.949219 C 392.0625 116.96875 392.480469 119.480469 384.949219 120.734375 C 394.15625 126.175781 394.574219 127.847656 411.726562 136.636719 C 417.167969 141.238281 417.167969 142.910156 418.839844 149.605469 C 420.515625 156.292969 424.722656 160.375 427.628906 164.25 C 438.503906 183.496094 437.25 188.9375 446.457031 197.722656 C 441.851562 197.304688 436.832031 194.375 434.738281 192.285156 C 433.066406 191.863281 433.484375 194.375 433.484375 195.628906 C 430.972656 194.792969 430.136719 189.355469 426.789062 190.191406 C 425.34375 190.191406 428.464844 192.285156 426.789062 195.628906 C 421.351562 193.539062 420.933594 192.703125 420.097656 190.191406 C 418.839844 188.519531 417.167969 185.589844 418.839844 185.171875 C 418.003906 188.519531 418.839844 190.191406 416.332031 190.191406 C 414.238281 186.007812 413.402344 188.9375 411.726562 185.171875 C 408.378906 179.3125 404.613281 180.148438 404.613281 173.035156 C 402.941406 173.035156 401.6875 174.710938 400.429688 176.800781 C 399.175781 175.128906 400.429688 173.035156 400.011719 171.78125 C 399.175781 172.058594 398.199219 172.476562 397.082031 173.035156 C 396.246094 167.734375 396.246094 163.96875 397.082031 161.738281 C 393.738281 162.578125 395.410156 164.25 390.808594 165.921875 C 388.714844 163.414062 389.132812 160.902344 389.972656 157.136719 C 387.878906 159.648438 387.878906 155.882812 384.949219 157.972656 C 381.183594 154.207031 380.765625 150.441406 374.488281 150.441406 C 372.398438 145.421875 373.234375 142.074219 369.886719 141.238281 C 368.535156 141.597656 368.214844 145.421875 367.375 144.167969 C 366.539062 142.910156 366.539062 139.984375 365.285156 139.144531 C 364.449219 137.890625 362.773438 141.65625 361.519531 140.402344 C 361.519531 138.308594 360.683594 135.796875 359.007812 134.542969 C 357.753906 132.871094 356.917969 134.542969 354.824219 135.796875 C 353.988281 133.707031 353.988281 132.03125 354.40625 129.941406 C 352.734375 129.523438 348.546875 132.03125 349.386719 129.105469 C 349.386719 126.175781 347.710938 127.429688 346.039062 127.429688 C 343.945312 127.429688 346.457031 125.339844 345.621094 124.921875 C 343.527344 124.082031 340.179688 125.757812 336.832031 127.429688 C 334.742188 126.59375 338.507812 123.246094 336.832031 123.246094 C 323.863281 122.828125 320.933594 126.175781 305.035156 124.921875 Z M 305.035156 124.921875 " fill-opacity="1" fill-rule="evenodd"/><path fill="#59349c" d="M 571.976562 106.121094 L 564.445312 104.867188 C 563.609375 102.355469 562.214844 100.953125 560.261719 100.683594 C 554.402344 100.261719 553.148438 103.609375 551.058594 104.867188 C 542.269531 103.609375 543.105469 104.449219 536.414062 104.867188 C 523.859375 102.773438 521.351562 106.539062 515.492188 107.792969 C 500.429688 109.886719 501.683594 111.558594 495.410156 114.488281 C 481.183594 122.019531 478.253906 122.4375 464.027344 126.621094 C 466.820312 126.894531 469.886719 126.621094 473.234375 125.785156 C 467.09375 127.460938 464.445312 128.429688 465.285156 128.714844 C 478.253906 126.621094 477.425781 130.484375 487.039062 128.714844 C 491.644531 127.460938 491.226562 124.949219 492.480469 123.695312 C 493.316406 126.621094 492.898438 126.621094 493.316406 129.132812 C 500.011719 127.878906 502.101562 128.296875 505.867188 128.296875 C 507.125 129.96875 504.335938 131.894531 505.867188 132.480469 C 507.542969 131.914062 509.773438 131.359375 512.5625 130.808594 C 510.890625 132.753906 510.191406 134.289062 510.472656 135.410156 C 516.746094 136.246094 515.492188 137.082031 520.511719 135.828125 C 515.910156 137.5 515.910156 137.5 513.820312 140.011719 C 520.511719 141.265625 519.675781 140.429688 523.859375 140.847656 C 522.1875 142.523438 522.605469 144.195312 523.441406 145.453125 C 525.953125 144.195312 527.429688 143.570312 528.464844 144.195312 C 527.207031 145.636719 526.371094 147.125 527.625 147.960938 C 531.808594 147.125 532.8125 145.753906 533.902344 147.125 C 532.648438 150.472656 533.902344 151.726562 534.320312 156.328125 C 536.414062 156.328125 538.503906 155.492188 540.597656 154.65625 C 541.015625 158.003906 539.339844 158.003906 539.339844 161.351562 C 541.851562 162.605469 544.78125 160.09375 546.453125 160.933594 C 543.527344 162.605469 543.527344 163.441406 543.105469 164.699219 C 546.035156 165.953125 545.617188 165.535156 548.964844 164.699219 C 546.734375 166.371094 546.035156 167.898438 546.871094 169.300781 C 549.101562 167.898438 550.359375 167.898438 550.636719 169.300781 C 549.800781 171.8125 550.636719 172.230469 551.058594 175.578125 C 555.242188 173.484375 555.242188 176.414062 559.84375 177.667969 C 562.339844 179.035156 562.519531 182.078125 564.445312 183.527344 C 568.210938 186.347656 572.8125 187.292969 572.394531 187.292969 C 571.976562 187.292969 568.628906 182.6875 570.304688 183.109375 C 571.695312 184.78125 573.511719 186.589844 575.742188 188.546875 C 575.742188 185.199219 575.460938 182.824219 574.90625 181.433594 C 578.671875 187.292969 579.925781 186.453125 586.621094 191.058594 C 587.875 185.617188 584.109375 183.527344 580.34375 179.34375 C 588.292969 188.546875 588.292969 187.710938 592.898438 189.382812 C 582.855469 176.832031 584.527344 178.503906 580.761719 167.207031 C 574.90625 156.328125 570.722656 141.683594 564.445312 135.828125 C 556.914062 130.808594 556.496094 128.714844 548.546875 124.949219 C 547.152344 122.992188 545.480469 121.601562 543.527344 120.765625 C 548.546875 119.929688 552.449219 118.390625 555.242188 116.164062 C 556.078125 114.070312 558.167969 114.070312 559.84375 112.398438 C 562.355469 111.832031 563.890625 110.578125 564.445312 108.632812 Z M 571.976562 106.121094 " fill-opacity="1" fill-rule="evenodd"/><path fill="#59349c" d="M 732.644531 106.917969 C 728.042969 106.496094 727.625 105.242188 722.601562 104.40625 C 721.347656 101.894531 720.929688 102.3125 718.417969 101.476562 C 712.5625 101.476562 709.632812 104.40625 706.285156 106.496094 C 696.242188 105.242188 693.316406 106.078125 687.875 107.335938 C 668.628906 112.355469 669.882812 112.355469 658.585938 116.957031 C 639.339844 128.253906 642.269531 129.511719 634.320312 133.695312 C 643.941406 136.203125 647.289062 132.4375 653.984375 130.765625 C 651.195312 131.882812 650.355469 133.277344 651.472656 134.949219 C 654.265625 133.832031 656.078125 133.414062 656.914062 133.695312 C 654.820312 134.53125 652.855469 138.117188 654.820312 137.878906 C 666.117188 137.042969 667.667969 131.90625 674.066406 131.601562 C 672.394531 133.695312 671.558594 134.949219 672.394531 137.042969 C 677.414062 135.785156 676.996094 136.203125 679.925781 135.367188 C 679.089844 137.878906 678.671875 137.878906 679.925781 141.644531 C 683.480469 142.480469 685.363281 139.550781 685.363281 139.550781 C 687.039062 141.226562 685.363281 144.152344 685.363281 147.917969 C 689.96875 147.917969 689.96875 148.757812 691.640625 147.917969 C 690.804688 151.265625 692.476562 151.265625 693.734375 153.777344 C 695.40625 150.429688 696.660156 151.683594 699.589844 148.757812 C 698.753906 154.195312 701.683594 153.777344 702.101562 157.542969 C 706.285156 153.777344 706.703125 152.941406 707.539062 148.757812 C 705.867188 155.03125 708.378906 155.871094 709.632812 160.472656 C 711.304688 157.542969 712.5625 157.542969 712.980469 153.777344 C 713.398438 155.871094 714.644531 157.070312 715.070312 156.289062 C 716.328125 152.105469 716.460938 152.890625 716.746094 153.777344 C 715.488281 159.214844 717.582031 160.472656 718.835938 165.074219 C 721.765625 160.054688 720.929688 157.542969 720.929688 157.125 C 721.765625 163.402344 727.207031 160.472656 732.644531 170.933594 C 734.320312 165.074219 725.949219 155.03125 723.019531 140.386719 C 721.347656 130.765625 721.765625 128.671875 717.164062 122.398438 C 715.910156 119.46875 712.980469 119.050781 711.722656 119.46875 C 715.070312 117.792969 714.652344 116.121094 716.746094 113.191406 C 723.019531 112.355469 721.347656 111.101562 723.019531 109.007812 C 722.601562 109.007812 725.113281 107.335938 732.644531 106.917969 Z M 732.644531 106.917969 " fill-opacity="1" fill-rule="evenodd"/><path fill="#59349c" d="M 886.894531 112.925781 C 886.894531 111.667969 882.292969 110.414062 878.527344 110.414062 C 877.964844 109.296875 876.992188 108.320312 875.597656 107.484375 C 873.363281 106.367188 870.433594 106.367188 866.8125 107.484375 C 863.464844 107.902344 860.117188 102.046875 863.464844 96.605469 C 866.390625 95.351562 867.648438 92.839844 868.066406 90.75 C 864.71875 89.074219 863.464844 88.65625 858.859375 89.074219 C 831.664062 90.75 823.296875 100.789062 812.835938 109.996094 C 809.488281 112.925781 817.019531 112.085938 820.367188 112.085938 C 802.792969 112.085938 787.730469 129.242188 790.242188 127.570312 C 792.753906 125.894531 796.9375 130.078125 804.886719 122.964844 C 805.722656 122.546875 801.957031 125.058594 798.609375 129.242188 C 807.398438 127.988281 807.398438 126.730469 814.929688 127.570312 C 814.089844 130.496094 816.433594 130.589844 818.695312 130.914062 C 820.503906 131.175781 822.542969 130.730469 824.96875 130.914062 C 830.210938 131.5 830.410156 130.496094 832.5 130.496094 C 835.011719 130.496094 834.738281 130.75 836.265625 130.496094 C 840.03125 129.660156 839.195312 129.242188 840.449219 127.570312 C 839.195312 130.914062 840.871094 132.171875 842.960938 136.355469 C 845.890625 133.84375 845.472656 130.496094 845.472656 128.40625 C 845.472656 133.84375 845.054688 132.171875 846.308594 135.519531 C 848.820312 133.425781 848.820312 133.84375 849.65625 130.496094 C 848.402344 134.679688 849.238281 137.609375 850.910156 142.210938 C 853.003906 142.210938 853.773438 140.261719 855.09375 140.957031 C 855.09375 143.050781 855.09375 142.210938 857.605469 146.398438 C 859.699219 144.304688 858.441406 147.652344 860.535156 143.050781 C 860.117188 147.234375 862.207031 144.722656 864.71875 150.582031 C 866.8125 146.398438 865.972656 144.722656 864.300781 140.957031 C 866.8125 146.398438 867.648438 145.976562 869.738281 148.90625 C 870.578125 140.957031 869.320312 139.285156 866.8125 133.84375 C 868.066406 125.894531 864.300781 125.476562 864.71875 119.828125 C 868.066406 115.433594 870.996094 120.664062 874.761719 117.109375 C 877.6875 116.691406 876.433594 115.433594 878.527344 114.179688 C 881.875 112.085938 886.476562 114.597656 886.894531 112.925781 Z M 886.894531 112.925781 " fill-opacity="1" fill-rule="evenodd"/><path fill="#59349c" d="M 1039.753906 116.472656 C 1037.242188 115.21875 1036.824219 116.054688 1033.058594 115.21875 C 1033.476562 113.125 1031.109375 111.03125 1028.457031 111.03125 C 1024.625 111.03125 1024.484375 113.207031 1019.671875 114.378906 C 1015.90625 115.300781 1014.355469 115.648438 1012.140625 113.542969 C 1002.097656 107.265625 1007.535156 105.59375 998.75 95.132812 C 994.984375 92.203125 993.730469 90.53125 997.078125 86.347656 C 1002.515625 80.488281 1004.191406 77.140625 1004.191406 72.957031 C 1002.515625 70.03125 968.625 71.703125 956.910156 87.183594 C 959.027344 87.664062 963.9375 84.378906 965.550781 84.671875 C 967.371094 85.09375 957.746094 90.113281 961.511719 89.277344 C 965.277344 88.4375 967.789062 86.347656 970.300781 86.347656 C 971.417969 86.328125 969.460938 87.183594 969.042969 89.277344 C 970.625 89.652344 973.144531 88.503906 975.738281 88.019531 C 977.210938 87.75 979.042969 88.164062 979.921875 88.019531 C 978.25 89.277344 975.738281 88.4375 971.554688 95.132812 C 974.066406 97.433594 977.410156 94.507812 979.921875 94.507812 C 978.667969 96.808594 975.320312 95.550781 973.644531 103.082031 C 974.484375 104.757812 978.25 100.574219 977.410156 102.246094 C 977.410156 103.921875 974.484375 103.082031 973.644531 109.777344 C 976.15625 109.777344 976.992188 106.847656 977.410156 108.941406 C 976.574219 110.195312 975.320312 110.195312 975.320312 112.707031 C 976.574219 113.960938 979.085938 111.03125 979.921875 111.03125 C 979.503906 111.871094 977.410156 111.871094 977.410156 115.21875 C 961.511719 118.984375 956.910156 122.75 948.960938 127.769531 C 951.890625 129.820312 958.582031 125.675781 959.421875 127.351562 C 958.808594 128.699219 954.816406 129.820312 947.707031 131.953125 C 954.816406 132.789062 960.675781 132.789062 965.550781 129.820312 C 969.878906 130.28125 973.320312 129.023438 974.484375 129.023438 C 976.15625 131.535156 974.484375 134.464844 977.410156 135.300781 C 978.667969 133.207031 980.757812 130.28125 981.175781 129.023438 C 982.433594 128.1875 979.085938 133.628906 982.433594 134.464844 C 986.199219 134.464844 990.382812 137.394531 997.496094 137.394531 C 1005.027344 137.394531 1006.699219 134.882812 1015.066406 131.953125 C 1020.089844 131.535156 1023.4375 129.863281 1025.527344 124.421875 C 1026.785156 121.074219 1029.292969 122.75 1033.058594 118.984375 C 1033.898438 118.144531 1038.082031 117.726562 1039.753906 116.472656 Z M 1039.753906 116.472656 " fill-opacity="1" fill-rule="evenodd"/><path fill="#59349c" d="M 1196.238281 115.175781 C 1196.019531 114.191406 1192.890625 113.921875 1187.871094 113.082031 C 1185.101562 111.785156 1184.65625 109.316406 1182.011719 109.316406 C 1176.574219 109.316406 1178.734375 111.894531 1173.226562 113.082031 C 1170.003906 113.78125 1166.949219 113.921875 1164.859375 113.082031 C 1162.765625 112.246094 1162.214844 111.535156 1160.671875 110.574219 C 1152.640625 105.59375 1156.417969 110.675781 1152.652344 102.203125 C 1148.242188 97.183594 1148.21875 91.933594 1149.792969 84.632812 C 1150.199219 82.75 1150.746094 81.222656 1151.46875 80.03125 C 1153.980469 75.917969 1156.769531 67.226562 1156.070312 61.199219 C 1155.484375 56.113281 1151.46875 55.34375 1144.773438 54.089844 C 1135.988281 52.414062 1130.964844 51.996094 1120.507812 53.25 C 1116.742188 56.597656 1111.71875 55.34375 1106.699219 62.039062 C 1110.464844 61.621094 1109.628906 60.78125 1112.558594 63.292969 C 1115.902344 61.621094 1119.035156 62.75 1119.25 62.875 C 1122.246094 64.601562 1117.769531 64.433594 1119.667969 65.386719 C 1122.179688 65.386719 1120.507812 67.058594 1119.667969 69.152344 C 1121.761719 68.941406 1123.015625 68.730469 1122.179688 70.824219 C 1124.019531 72.171875 1125.679688 69.46875 1125.945312 71.242188 C 1126.304688 73.652344 1121.050781 75.175781 1122.179688 78.355469 C 1129.710938 79.609375 1130.546875 80.449219 1131.386719 81.285156 C 1129.710938 81.703125 1132.640625 82.121094 1120.507812 85.886719 C 1121.761719 90.070312 1126.363281 88.398438 1126.78125 92.582031 C 1126.78125 95.511719 1123.015625 94.253906 1121.761719 99.695312 C 1126.78125 100.53125 1125.527344 102.203125 1131.386719 102.203125 C 1129.292969 102.203125 1123.855469 103.878906 1120.507812 107.226562 C 1124.273438 108.0625 1123.015625 109.734375 1126.363281 110.15625 C 1129.292969 111.410156 1128.875 111.558594 1128.039062 113.082031 C 1125.316406 118.046875 1125.945312 119.359375 1119.667969 122.707031 C 1113.394531 126.054688 1108.664062 129.308594 1105.027344 131.910156 C 1103.089844 133.300781 1101.894531 135.355469 1100.421875 136.933594 C 1105.445312 136.09375 1105.445312 135.675781 1106.699219 136.09375 C 1107.535156 137.769531 1107.117188 134.839844 1106.699219 140.699219 C 1109.210938 138.605469 1113.394531 135.675781 1115.902344 134.003906 C 1117.996094 134.003906 1121.34375 132.75 1123.015625 134.003906 C 1125.109375 134.003906 1123.015625 131.074219 1123.015625 130.253906 C 1123.015625 129.433594 1124.472656 132.679688 1125.109375 131.910156 C 1127.199219 129.402344 1126.78125 128.144531 1126.363281 126.054688 C 1128.039062 127.308594 1126.78125 130.613281 1128.875 131.074219 C 1136.824219 133.585938 1137.660156 133.167969 1146.449219 130.65625 C 1146.949219 130.628906 1147.683594 130.269531 1148.246094 130.253906 C 1148.75 130.847656 1148.539062 131.511719 1149.792969 131.910156 C 1150.453125 130.929688 1151.859375 130.632812 1152.652344 130.613281 C 1152.871094 130.613281 1152.550781 130.226562 1152.652344 130.253906 C 1156.835938 131.511719 1159.835938 131.910156 1166.113281 130.65625 C 1171.550781 127.308594 1176.15625 128.5625 1180.757812 123.542969 C 1186.613281 121.03125 1186.613281 119.359375 1187.871094 116.847656 C 1189.542969 115.59375 1191.636719 116.847656 1196.238281 115.175781 Z M 1196.238281 115.175781 " fill-opacity="1" fill-rule="evenodd"/><path fill="#59349c" d="M 1356.90625 119.46875 C 1353.558594 118.214844 1353.976562 118.632812 1349.792969 117.792969 C 1346.613281 116.421875 1347.699219 113.191406 1341.007812 112.355469 C 1334.269531 112.785156 1334.730469 118.214844 1328.035156 117.792969 C 1323.671875 117.523438 1322.597656 114.867188 1319.25 113.191406 C 1315.902344 111.519531 1313.808594 111.101562 1311.300781 108.171875 C 1305.859375 90.597656 1310.769531 104.171875 1310.042969 83.484375 C 1309.929688 80.320312 1307.535156 65.074219 1309.625 60.890625 C 1312.972656 59.636719 1311.652344 55.117188 1309.625 51.6875 C 1296.238281 37.460938 1292.796875 27.40625 1284.519531 18.632812 C 1282.847656 18.214844 1286.613281 23.652344 1283.683594 21.5625 C 1280.003906 19.4375 1280.753906 15.703125 1274.0625 12.355469 C 1274.480469 14.449219 1275.734375 17.378906 1274.898438 18.632812 C 1272.804688 17.378906 1269.039062 9.007812 1266.53125 9.007812 C 1266.949219 10.683594 1269.878906 13.613281 1269.878906 18.632812 C 1269.878906 20.304688 1264.019531 16.121094 1266.113281 18.214844 C 1268.203125 20.304688 1269.039062 23.652344 1269.878906 26.164062 C 1272.910156 31.679688 1279.082031 35.789062 1279.082031 35.367188 C 1277.828125 34.949219 1271.96875 30.347656 1268.203125 30.765625 C 1269.039062 32.859375 1271.550781 33.695312 1272.386719 37.878906 C 1271.550781 38.714844 1272.386719 39.132812 1269.039062 37.878906 C 1270.714844 45.828125 1274.898438 49.59375 1283.683594 55.035156 C 1284.773438 56.808594 1279.039062 53.285156 1277.828125 54.617188 C 1276.738281 55.796875 1278.527344 58.214844 1279.917969 60.890625 C 1283.753906 68.253906 1287.585938 68.808594 1288.285156 73.445312 C 1287.867188 75.117188 1284.199219 72.917969 1282.429688 74.28125 C 1281.480469 75.007812 1284.417969 76.683594 1284.101562 78.464844 C 1283.789062 80.238281 1280.246094 79.167969 1280.753906 80.976562 C 1281.792969 82.222656 1279.917969 85.996094 1280.335938 88.085938 C 1280.753906 90.179688 1282.011719 90.597656 1282.011719 92.691406 C 1282.011719 94.78125 1284.941406 91.851562 1285.359375 95.199219 C 1287.449219 96.875 1284.941406 96.875 1282.011719 100.222656 C 1284.101562 102.3125 1286.195312 101.894531 1285.359375 106.078125 C 1284.519531 110.261719 1282.429688 108.589844 1280.335938 111.101562 C 1278.246094 114.027344 1279.082031 115.703125 1276.152344 118.214844 C 1272.386719 121.558594 1269.878906 119.886719 1263.183594 124.90625 C 1257.742188 127.835938 1257.324219 125.746094 1250.628906 130.347656 C 1258.160156 131.183594 1265.691406 135.367188 1279.082031 132.4375 C 1281.175781 133.277344 1276.988281 134.53125 1278.246094 135.367188 C 1284.101562 135.785156 1284.941406 136.621094 1287.867188 135.367188 C 1286.195312 136.621094 1283.425781 139.007812 1284.941406 139.132812 C 1288.507812 139.441406 1294.722656 138.734375 1297.492188 139.132812 C 1301.007812 139.636719 1302.828125 141.226562 1308.789062 141.226562 C 1312.011719 141.226562 1315.589844 137.804688 1317.574219 138.296875 C 1320.628906 139.050781 1320.085938 139.523438 1324.6875 138.296875 C 1332.777344 136.140625 1334.730469 134.53125 1341.007812 130.347656 C 1344.351562 125.324219 1346.445312 126.582031 1349.375 121.558594 C 1353.976562 120.722656 1356.90625 120.722656 1356.90625 119.46875 Z M 1356.90625 119.46875 " fill-opacity="1" fill-rule="evenodd"/><path fill="#59349c" d="M 1504.269531 114.449219 C 1504.269531 113.375 1502.175781 112.773438 1498.828125 111.519531 C 1497.050781 110.207031 1498.828125 108.171875 1494.644531 107.335938 C 1487.53125 107.335938 1490.03125 111.089844 1485.859375 112.355469 C 1481.675781 111.9375 1482.09375 111.519531 1477.070312 112.773438 C 1475.335938 113.207031 1475.441406 108.253906 1474.5625 107.335938 C 1473.320312 106.054688 1472.46875 106.078125 1470.378906 103.988281 C 1469.121094 99.382812 1472.886719 93.945312 1471.632812 85.160156 C 1471.070312 81.257812 1469.675781 76.136719 1467.867188 71.351562 C 1466.839844 65.871094 1467.03125 67.167969 1462.425781 61.726562 C 1453.640625 50.011719 1446.945312 46.246094 1442.761719 33.695312 C 1440.6875 31.789062 1442.476562 38.898438 1440.671875 38.296875 C 1437.457031 37.226562 1434.226562 30.347656 1432.71875 30.347656 C 1431.507812 30.347656 1435.859375 37.835938 1434.394531 39.972656 C 1433.140625 41.8125 1427.28125 36.761719 1427.28125 37.878906 C 1427.28125 39.273438 1430.628906 44.574219 1433.558594 45.828125 C 1431.882812 47.503906 1429.582031 43.902344 1428.953125 45.410156 C 1431.882812 49.175781 1429.375 50.011719 1431.464844 55.453125 C 1433.878906 60.492188 1436.066406 58.800781 1438.160156 62.984375 C 1436.644531 64.726562 1427.910156 60.136719 1427.28125 61.726562 C 1426.855469 62.785156 1431.339844 62.859375 1434.394531 65.914062 C 1436.90625 68.421875 1435.148438 71.550781 1436.90625 72.605469 C 1438.996094 73.863281 1437.742188 75.117188 1440.25 78.046875 C 1442.761719 80.976562 1444.4375 77.210938 1443.597656 81.394531 C 1443.207031 83.34375 1441.925781 83.210938 1441.925781 85.160156 C 1441.925781 87.394531 1445.273438 84.742188 1444.4375 87.25 C 1444.4375 88.328125 1442.761719 88.925781 1441.925781 90.597656 C 1441.925781 90.898438 1445.097656 89.984375 1445.273438 91.015625 C 1445.722656 93.75 1442.246094 95.953125 1443.597656 98.128906 C 1444.96875 100.347656 1448.621094 99.804688 1450.710938 99.382812 C 1448.621094 101.058594 1445.273438 101.039062 1445.273438 103.152344 C 1445.273438 107.105469 1449.457031 108.589844 1446.945312 110.683594 C 1447.78125 112.773438 1444.855469 114.449219 1445.273438 116.121094 C 1445.691406 117.792969 1447.4375 119.664062 1449.457031 120.304688 C 1450.8125 120.734375 1453.222656 121.140625 1451.96875 121.558594 C 1449.457031 122.398438 1449.039062 121.140625 1446.945312 122.816406 C 1445.167969 122.816406 1446.109375 120.304688 1442.761719 121.140625 C 1432.71875 122.816406 1417.65625 129.511719 1412.21875 135.367188 C 1411.382812 136.621094 1417.238281 134.113281 1421.003906 133.695312 C 1417.65625 134.949219 1412.636719 136.621094 1418.914062 136.203125 C 1423.515625 136.621094 1430.628906 136.203125 1442.761719 134.113281 C 1451.742188 133.835938 1449.875 137.042969 1459.078125 134.949219 C 1463.683594 136.203125 1470.796875 137.460938 1477.070312 132.855469 C 1482.929688 132.019531 1483.589844 128.734375 1490.878906 123.234375 C 1493.390625 122.398438 1495.480469 118.632812 1496.738281 116.121094 C 1500 114.644531 1501.757812 115.703125 1504.269531 114.449219 Z M 1504.269531 114.449219 " fill-opacity="1" fill-rule="evenodd"/></svg>